<svg id="Layer_1" data-name="Layer 1" xmlns="http://www.w3.org/2000/svg" viewBox="0 0 100 100"><defs><style>.cls-1{fill:#fff;}.cls-2{fill:none;stroke:#fff;stroke-miterlimit:10;stroke-width:10px;}</style></defs><path class="cls-1" d="M50,10A40,40,0,1,1,10,50,40,40,0,0,1,50,10M50,0a50,50,0,1,0,50,50A50,50,0,0,0,50,0Z"/><path class="cls-1" d="M50,39.83A10.17,10.17,0,1,1,39.83,50,10.18,10.18,0,0,1,50,39.83m0-10A20.17,20.17,0,1,0,70.17,50,20.17,20.17,0,0,0,50,29.83Z"/><line class="cls-2" x1="6" y1="50" x2="35.83" y2="50"/><line class="cls-2" x1="64.17" y1="50" x2="94" y2="50"/></svg>