<svg id="Layer_1" data-name="Layer 1" xmlns="http://www.w3.org/2000/svg" viewBox="0 0 100 100"><defs><style>.cls-1{fill:#222;}.cls-2{fill:#e5e5e5;}.cls-3{fill:#ed2124;}</style></defs><path class="cls-1" d="M50,0a50,50,0,1,0,50,50A50,50,0,0,0,50,0Zm0,7A43,43,0,0,1,92.85,46.5H65.24a15.64,15.64,0,0,0-30.48,0H7.15A43,43,0,0,1,50,7Zm8.64,43A8.64,8.64,0,1,1,50,41.36,8.65,8.65,0,0,1,58.64,50ZM50,93A43,43,0,0,1,7.15,53.5H34.76a15.64,15.64,0,0,0,30.48,0H92.85A43,43,0,0,1,50,93Z"/><path class="cls-2" d="M92.85,53.5a43,43,0,0,1-85.7,0H34.76a15.64,15.64,0,0,0,30.48,0Z"/><path class="cls-3" d="M92.85,46.5H65.24a15.64,15.64,0,0,0-30.48,0H7.15a43,43,0,0,1,85.7,0Z"/><circle class="cls-2" cx="50" cy="50" r="8.64"/></svg>