<svg id="Layer_1" data-name="Layer 1" xmlns="http://www.w3.org/2000/svg" viewBox="0 0 100 100"><defs><style>.cls-1{fill:#fff;}.cls-2{fill:#eecb56;}</style></defs><path class="cls-1" d="M76.45,93.41a2.63,2.63,0,0,1-1.25-.33L55.44,82.69a11.71,11.71,0,0,0-10.88,0L24.8,93.08a2.64,2.64,0,0,1-1.26.33,2.8,2.8,0,0,1-2.08-1,2.57,2.57,0,0,1-.56-2.16l3.77-22a11.69,11.69,0,0,0-3.36-10.35l-16-15.58a2.69,2.69,0,0,1,1.49-4.59l22.1-3.21a11.7,11.7,0,0,0,8.8-6.39l9.88-20a2.69,2.69,0,0,1,4.82,0l9.88,20a11.67,11.67,0,0,0,8.8,6.39l22.1,3.21a2.69,2.69,0,0,1,1.49,4.59l-16,15.58a11.72,11.72,0,0,0-3.36,10.35l3.77,22a2.57,2.57,0,0,1-.56,2.16A2.81,2.81,0,0,1,76.45,93.41Z"/><path class="cls-2" d="M50,13.38l8.26,16.73A16.16,16.16,0,0,0,70.45,39l18.46,2.69-13.36,13A16.18,16.18,0,0,0,70.89,69l3.16,18.39L57.53,78.71a16.17,16.17,0,0,0-15.06,0L26,87.39,29.11,69a16.18,16.18,0,0,0-4.66-14.33l-13.36-13L29.55,39a16.16,16.16,0,0,0,12.19-8.85L50,13.38M50,2.09a7.12,7.12,0,0,0-6.45,4l-9.88,20a7.19,7.19,0,0,1-5.41,3.93L6.16,33.27a7.19,7.19,0,0,0-4,12.26l16,15.59a7.2,7.2,0,0,1,2.07,6.36l-3.78,22a7.16,7.16,0,0,0,10.43,7.57L46.65,86.67a7.25,7.25,0,0,1,6.7,0L73.11,97.06a7.16,7.16,0,0,0,10.43-7.57l-3.78-22a7.2,7.2,0,0,1,2.07-6.36l16-15.59a7.19,7.19,0,0,0-4-12.26l-22.1-3.21a7.19,7.19,0,0,1-5.41-3.93l-9.88-20a7.12,7.12,0,0,0-6.45-4Z"/></svg>