<svg id="Layer_1" data-name="Layer 1" xmlns="http://www.w3.org/2000/svg" viewBox="0 0 100 100"><defs><style>.cls-1{fill:#eecb56;}</style></defs><path class="cls-1" d="M46.65,86.67,26.89,97.06a7.18,7.18,0,0,1-10.43-7.57l3.78-22a7.2,7.2,0,0,0-2.07-6.36l-16-15.59a7.19,7.19,0,0,1,4-12.26l22.1-3.21a7.19,7.19,0,0,0,5.41-3.93l9.88-20a7.2,7.2,0,0,1,12.9,0l9.88,20a7.19,7.19,0,0,0,5.41,3.93l22.1,3.21a7.19,7.19,0,0,1,4,12.26l-16,15.59a7.2,7.2,0,0,0-2.07,6.36l3.78,22a7.18,7.18,0,0,1-10.43,7.57L53.35,86.67A7.21,7.21,0,0,0,46.65,86.67Z"/></svg>